<?xml version="1.0" standalone="no"?>
<!DOCTYPE svg PUBLIC "-//W3C//DTD SVG 20010904//EN"
 "http://www.w3.org/TR/2001/REC-SVG-20010904/DTD/svg10.dtd">
<svg version="1.0" xmlns="http://www.w3.org/2000/svg"
 width="1000.000000pt" height="1000.000000pt" viewBox="0 0 1000.000000 1000.000000"
 preserveAspectRatio="xMidYMid meet">

<g transform="translate(0.000000,1000.000000) scale(0.100000,-0.100000)"
fill="#000000" stroke="none">
<path d="M2330 5841 c0 -4 23 -154 51 -332 27 -178 54 -349 59 -379 5 -30 27
-174 49 -320 23 -146 43 -275 46 -287 5 -23 8 -23 153 -23 l147 0 85 355 c46
195 88 355 92 355 4 0 8 -7 8 -15 0 -9 16 -82 36 -163 19 -81 48 -203 65 -272
16 -69 37 -155 46 -192 l16 -68 147 0 147 0 12 78 c7 42 19 111 26 152 7 41
18 109 24 150 18 114 36 234 65 420 46 287 66 418 66 424 0 3 686 6 1524 6
l1524 0 6 31 c3 17 6 44 6 60 l0 29 -1665 0 -1664 0 -5 -32 c-3 -18 -10 -67
-16 -108 -39 -280 -80 -564 -82 -566 -2 -1 -32 126 -67 283 -35 157 -71 316
-81 352 l-16 66 -122 3 c-119 3 -122 2 -132 -20 -5 -13 -41 -167 -80 -343 -40
-176 -76 -324 -80 -328 -4 -5 -11 18 -14 50 -21 178 -86 625 -92 635 -7 11
-284 10 -284 -1z"/>
<path d="M4240 5613 c-67 -35 -93 -78 -87 -142 7 -61 32 -90 121 -137 97 -52
114 -67 96 -88 -24 -30 -140 -11 -152 24 -2 6 -22 -9 -46 -33 -40 -41 -41 -44
-26 -65 38 -54 159 -85 244 -62 83 22 145 112 126 182 -15 59 -45 87 -136 130
-73 35 -90 47 -88 63 4 27 69 33 105 10 25 -17 26 -16 66 23 l40 40 -30 30
c-57 57 -150 67 -233 25z"/>
<path d="M5280 5613 c-67 -35 -93 -78 -87 -142 7 -61 32 -90 121 -137 97 -52
114 -67 96 -88 -24 -30 -140 -11 -152 24 -2 6 -22 -9 -46 -33 -40 -41 -41 -44
-26 -65 38 -54 159 -85 244 -62 83 22 145 112 126 182 -15 59 -45 87 -136 130
-73 35 -90 47 -88 63 4 27 69 33 105 10 25 -17 26 -16 66 23 l40 40 -30 30
c-57 57 -150 67 -233 25z"/>
<path d="M3730 5370 l0 -260 170 0 170 0 0 65 0 65 -100 0 -100 0 0 40 0 40
85 0 85 0 0 55 0 55 -85 0 -85 0 0 35 0 35 100 0 100 0 0 65 0 65 -170 0 -170
0 0 -260z"/>
<path d="M4550 5565 l0 -65 60 0 60 0 0 -195 0 -195 70 0 70 0 0 195 0 195 60
0 60 0 0 65 0 65 -190 0 -190 0 0 -65z"/>
<path d="M5630 5370 l0 -260 70 0 70 0 0 260 0 260 -70 0 -70 0 0 -260z"/>
<path d="M5840 5565 l0 -65 89 0 89 0 -65 -142 c-36 -79 -76 -167 -89 -195
l-23 -53 200 0 199 0 0 65 0 64 -89 3 -89 3 84 185 c46 101 84 188 84 192 0 4
-88 8 -195 8 l-195 0 0 -65z"/>
<path d="M6300 5370 l0 -260 170 0 170 0 0 65 0 65 -100 0 -100 0 0 40 0 40
85 0 85 0 0 55 0 55 -85 0 -85 0 0 35 0 35 100 0 100 0 0 65 0 65 -170 0 -170
0 0 -260z"/>
</g>
</svg>
